<?xml version="1.0" encoding="iso-8859-1"?>
<!-- Generator: Adobe Illustrator 18.1.1, SVG Export Plug-In . SVG Version: 6.00 Build 0)  -->
<svg version="1.1" id="Capa_1" xmlns="http://www.w3.org/2000/svg" xmlns:xlink="http://www.w3.org/1999/xlink" x="0px" y="0px"
	 viewBox="0 0 398.283 398.283" style="enable-background:new 0 0 398.283 398.283;" xml:space="preserve">
<g>
	<g>
		<path style="fill:#010002;" d="M199.141,398.283l-4.535-5.293C188.795,386.206,52.32,225.906,52.32,146.821
			C52.32,65.862,118.183,0,199.141,0s146.821,65.868,146.821,146.821c0,79.085-136.48,239.391-142.292,246.169L199.141,398.283z
			 M199.141,11.928c-74.377,0-134.887,60.51-134.887,134.887c0,66.96,110.894,204.121,134.887,233.006
			c23.993-28.886,134.887-166.046,134.887-233.006C334.022,72.444,273.518,11.928,199.141,11.928z"/>
	</g>
	<g>
		<path style="fill:#010002;" d="M199.141,207.337c-33.367,0-60.516-27.149-60.516-60.522c0-33.367,27.149-60.516,60.516-60.516
			c33.373,0,60.522,27.149,60.522,60.516C259.663,180.188,232.514,207.337,199.141,207.337z M199.141,98.233
			c-26.791,0-48.582,21.791-48.582,48.582c0,26.791,21.791,48.588,48.582,48.588s48.588-21.791,48.588-48.588
			C247.73,120.03,225.933,98.233,199.141,98.233z"/>
	</g>
</g>
<g>
</g>
<g>
</g>
<g>
</g>
<g>
</g>
<g>
</g>
<g>
</g>
<g>
</g>
<g>
</g>
<g>
</g>
<g>
</g>
<g>
</g>
<g>
</g>
<g>
</g>
<g>
</g>
<g>
</g>
</svg>
